<svg width="40" height="40" viewBox="0 0 40 40" fill="none" xmlns="http://www.w3.org/2000/svg">
<g id="Group 1">
<rect id="Rectangle 11" width="40" height="40" rx="8" fill="#5ED3F3"/>
<path id="Vector" d="M20 16.7938C19.6255 16.7938 19.2546 16.8767 18.9086 17.0378C18.5626 17.1989 18.2482 17.435 17.9833 17.7327C17.7185 18.0303 17.5084 18.3837 17.3651 18.7726C17.2218 19.1615 17.148 19.5783 17.148 19.9993C17.148 20.4202 17.2218 20.837 17.3651 21.226C17.5084 21.6149 17.7185 21.9682 17.9833 22.2659C18.2482 22.5635 18.5626 22.7997 18.9086 22.9607C19.2546 23.1218 19.6255 23.2047 20 23.2047C20.3745 23.2047 20.7454 23.1218 21.0914 22.9607C21.4374 22.7997 21.7518 22.5635 22.0167 22.2659C22.2815 21.9682 22.4916 21.6149 22.6349 21.226C22.7782 20.837 22.852 20.4202 22.852 19.9993C22.852 19.5783 22.7782 19.1615 22.6349 18.7726C22.4916 18.3837 22.2815 18.0303 22.0167 17.7327C21.7518 17.435 21.4374 17.1989 21.0914 17.0378C20.7454 16.8767 20.3745 16.7938 20 16.7938ZM12.0107 26.3757L11.3813 26.1959C6.69067 24.8637 4 22.6023 4 19.9933C4 17.3843 6.69067 15.1229 11.3813 13.7907L12.0107 13.6123L12.188 14.3137C12.6632 16.1535 13.271 17.9467 14.0053 19.6756L14.14 19.9948L14.0053 20.314C13.2697 22.0422 12.6619 23.8356 12.188 25.6759L12.0107 26.3757ZM11.0893 15.4286C7.524 16.554 5.336 18.2759 5.336 19.9933C5.336 21.7092 7.524 23.431 11.0893 24.558C11.5254 22.9993 12.0518 21.4745 12.6653 19.9933C12.0511 18.5124 11.5246 16.9875 11.0893 15.4286ZM27.9893 26.3757L27.812 25.6729C27.3373 23.8332 26.729 22.0403 25.9933 20.3125L25.8587 19.9933L25.9933 19.6741C26.7288 17.9456 27.337 16.1523 27.812 14.3122L27.9893 13.6108L28.62 13.7892C33.3093 15.1214 36 17.3828 36 19.9933C36 22.6038 33.3093 24.8637 28.62 26.1959L27.9893 26.3757ZM27.3347 19.9933C27.9747 21.5503 28.504 23.0804 28.9107 24.558C32.4773 23.431 34.664 21.7092 34.664 19.9933C34.664 18.2759 32.476 16.5555 28.9107 15.4286C28.4752 16.9875 27.9487 18.5123 27.3347 19.9933ZM11.08 15.4211L10.9027 14.7213C9.584 9.49722 9.984 5.75377 12 4.447C13.9773 3.16422 17.152 4.67928 20.4787 8.51715L20.932 9.04015L20.4787 9.56316C19.2966 10.9443 18.2166 12.4313 17.2493 14.0094L17.0693 14.2987L16.756 14.3286C15.0545 14.4794 13.3668 14.7851 11.7093 15.2428L11.08 15.4211ZM13.608 5.48552C13.2507 5.48552 12.9347 5.57244 12.668 5.74478C11.3427 6.60346 11.108 9.58864 12.0213 13.6168C13.4422 13.2616 14.8821 13.0108 16.332 12.866C17.1686 11.5291 18.0825 10.2556 19.068 9.05364C16.988 6.7773 15.0187 5.48552 13.608 5.48552ZM26.3933 35.9996C26.392 35.9996 26.392 35.9996 26.3933 35.9996C24.4933 35.9996 22.0533 34.3916 19.5213 31.4694L19.068 30.9464L19.5213 30.4234C20.7031 29.0419 21.7827 27.5543 22.7493 25.9756L22.9293 25.6864L23.2413 25.6564C24.9437 25.5065 26.6323 25.2013 28.2907 24.7438L28.92 24.5655L29.0987 25.2668C30.4147 30.4878 30.016 34.2328 28 35.5381C27.5103 35.8493 26.9558 36.0085 26.3933 35.9996ZM20.932 30.9329C23.012 33.2093 24.9813 34.501 26.392 34.501C26.748 34.501 27.0667 34.4141 27.332 34.2418C28.6573 33.3831 28.8933 30.3964 27.9787 26.3682C26.5575 26.724 25.117 26.9748 23.6667 27.119C22.8311 28.4569 21.9176 29.731 20.932 30.9329ZM28.92 15.4211L28.2907 15.2428C26.6326 14.7838 24.9438 14.4781 23.2413 14.3286L22.9293 14.2987L22.7493 14.0094C21.7832 12.4308 20.7035 10.9437 19.5213 9.56316L19.068 9.04015L19.5213 8.51715C22.8467 4.68078 26.02 3.16572 28 4.447C30.016 5.75377 30.416 9.49722 29.0987 14.7198L28.92 15.4211ZM23.6667 12.866C25.1893 13.0219 26.636 13.2751 27.9787 13.6168C28.8933 9.58864 28.6573 6.60346 27.332 5.74478C26.0147 4.88909 23.5387 6.20034 20.932 9.05364C21.917 10.2556 22.8305 11.5292 23.6667 12.866ZM13.608 35.9996C13.0451 36.0088 12.4901 35.8495 12 35.5381C9.984 34.2328 9.584 30.4893 10.9027 25.2668L11.0787 24.5655L11.708 24.7438C13.248 25.1799 14.9467 25.4871 16.7547 25.6564L17.068 25.6864L17.2467 25.9756C18.2141 27.5541 19.2941 29.0416 20.476 30.4234L20.9293 30.9464L20.476 31.4694C17.9453 34.3916 15.5053 35.9996 13.608 35.9996ZM12.0213 26.3682C11.1067 30.3964 11.3427 33.3831 12.668 34.2418C13.984 35.0855 16.4587 33.7847 19.068 30.9329C18.0829 29.7301 17.169 28.4561 16.332 27.119C14.8821 26.9749 13.4421 26.7241 12.0213 26.3682ZM20 27.3094C18.9027 27.3094 17.7747 27.2554 16.6453 27.1505L16.332 27.1205L16.152 26.8313C15.5132 25.7997 14.9127 24.7388 14.352 23.6513C13.793 22.563 13.2743 21.4491 12.7973 20.3125L12.6653 19.9933L12.7973 19.6741C13.2742 18.5374 13.7929 17.4235 14.352 16.3352C14.904 15.2623 15.5107 14.1923 16.152 13.1553L16.332 12.866L16.6453 12.8361C18.8782 12.6233 21.1231 12.6233 23.356 12.8361L23.668 12.866L23.8467 13.1553C25.1256 15.2189 26.2482 17.3995 27.2027 19.6741L27.3373 19.9933L27.2027 20.3125C26.2504 22.5884 25.1277 24.7692 23.8467 26.8313L23.668 27.1205L23.356 27.1505C22.2267 27.2554 21.0973 27.3094 20 27.3094ZM17.0707 25.6849C19.044 25.8512 20.956 25.8512 22.9307 25.6849C24.0331 23.8735 25.0119 21.9708 25.8587 19.9933C25.0134 18.0145 24.0341 16.1117 22.9293 14.3017C20.9792 14.1353 19.0208 14.1353 17.0707 14.3017C15.9654 16.1114 14.9861 18.0142 14.1413 19.9933C14.989 21.9706 15.9682 23.8732 17.0707 25.6849Z" fill="white"/>
</g>
</svg>
