<svg width="40" height="40" viewBox="0 0 40 40" fill="none" xmlns="http://www.w3.org/2000/svg">
<g id="Group 2">
<rect id="Rectangle 13" width="40" height="40" rx="8" fill="url(#paint0_linear_1_200)"/>
<path id="Vector" d="M33.5089 27.012C35.8438 19.7638 32.2082 10.1282 24.3845 4C27.7874 9.71623 28.9102 16.0125 26.5379 20.9922C21.2338 17.1937 10.8041 7.13654 10.8041 7.13654C10.8041 7.13654 15.6942 15.356 19.4152 19.3484C15.6942 16.8824 13.6741 15.1212 7.18919 9.13287C11.6311 17.1854 19.2221 24.4881 21.9665 27.012C13.6741 31.9125 4 24.8671 4 24.8671C5.66181 27.6585 8.00781 29.7498 10.8041 31.9125C18.471 37.8417 26.1127 36.4038 29.0898 33.3511C29.0898 33.3511 30 32.2243 31.9598 32.8561C33.3236 33.2956 35.1322 34.8888 35.7857 35.6334C35.9258 34.9658 36 34.2706 36 33.5563C36 30.9923 35.0463 28.6742 33.5089 27.012Z" fill="white"/>
</g>
<defs>
<linearGradient id="paint0_linear_1_200" x1="20" y1="10" x2="20" y2="47.1795" gradientUnits="userSpaceOnUse">
<stop stop-color="#F3A63C"/>
<stop offset="1" stop-color="#F73828"/>
</linearGradient>
</defs>
</svg>
