<svg width="120" height="40" viewBox="0 0 120 40" fill="none" xmlns="http://www.w3.org/2000/svg">
<path d="M110.135 0.00013H9.53468C9.16798 0.00013 8.80568 0.00013 8.43995 0.00213C8.1338 0.00413 7.83009 0.00994 7.521 0.01483C6.84951 0.0227318 6.17961 0.0818063 5.5171 0.19154C4.85552 0.303663 4.21467 0.515046 3.61622 0.81854C3.0185 1.1246 2.47235 1.5223 1.99757 1.9972C1.5203 2.47077 1.12246 3.01815 0.81935 3.61829C0.5154 4.21724 0.304641 4.85907 0.19435 5.52161C0.0830109 6.18332 0.0230984 6.85265 0.01515 7.52361C0.00587 7.83021 0.00489 8.13783 0 8.44447V31.5587C0.00489 31.8692 0.00587 32.17 0.01515 32.4806C0.0231008 33.1516 0.0830134 33.8209 0.19435 34.4825C0.304336 35.1455 0.515108 35.7877 0.81935 36.3868C1.12233 36.985 1.52022 37.5302 1.99757 38.0011C2.47054 38.4781 3.01705 38.8761 3.61622 39.1798C4.21467 39.4841 4.85545 39.6968 5.5171 39.8106C6.17972 39.9195 6.84956 39.9786 7.521 39.9874C7.83009 39.9942 8.1338 39.9981 8.43995 39.9981C8.80567 40.0001 9.168 40.0001 9.53468 40.0001H110.135C110.494 40.0001 110.859 40.0001 111.219 39.9981C111.523 39.9981 111.836 39.9942 112.141 39.9874C112.811 39.9791 113.479 39.92 114.141 39.8106C114.804 39.696 115.448 39.4834 116.049 39.1798C116.647 38.8759 117.193 38.478 117.666 38.0011C118.142 37.5284 118.541 36.9836 118.848 36.3868C119.15 35.7872 119.358 35.1451 119.467 34.4825C119.578 33.8208 119.64 33.1516 119.652 32.4806C119.656 32.17 119.656 31.8692 119.656 31.5587C119.664 31.1954 119.664 30.8341 119.664 30.4649V9.53626C119.664 9.17005 119.664 8.80677 119.656 8.44447C119.656 8.13783 119.656 7.83021 119.652 7.52357C119.64 6.85255 119.578 6.18337 119.467 5.52157C119.358 4.85941 119.149 4.21763 118.848 3.61825C118.23 2.41533 117.252 1.43616 116.049 0.81845C115.448 0.515697 114.804 0.30437 114.141 0.19145C113.48 0.0812328 112.811 0.0221378 112.141 0.01469C111.836 0.00981 111.523 0.00395 111.219 0.002C110.859 0 110.494 0.00013 110.135 0.00013Z" fill="#A6A6A6"/>
<path d="M8.44291 39.125C8.13823 39.125 7.84091 39.1211 7.53862 39.1143C6.91241 39.1061 6.28765 39.0516 5.66948 38.9512C5.09307 38.8519 4.53469 38.6673 4.01274 38.4033C3.49559 38.1415 3.0239 37.7983 2.61574 37.3867C2.20168 36.98 1.85696 36.5082 1.59523 35.9902C1.33062 35.4688 1.1475 34.9099 1.05223 34.333C0.949358 33.7131 0.893698 33.0863 0.885734 32.458C0.879394 32.2471 0.871094 31.5449 0.871094 31.5449V8.44434C0.871094 8.44434 0.879934 7.75293 0.885784 7.5498C0.89341 6.92248 0.948746 6.29665 1.05131 5.67773C1.14675 5.09925 1.33002 4.53875 1.59477 4.01563C1.85554 3.49794 2.19835 3.02586 2.60991 2.61768C3.02102 2.20562 3.49422 1.8606 4.01225 1.59521C4.533 1.33209 5.09033 1.14873 5.66557 1.05127C6.28577 0.949836 6.91269 0.894996 7.54108 0.88721L8.4434 0.875H111.212L112.125 0.8877C112.748 0.895099 113.369 0.94945 113.983 1.05029C114.565 1.14898 115.128 1.33362 115.654 1.59814C116.692 2.13299 117.537 2.97916 118.069 4.01807C118.33 4.53758 118.51 5.09351 118.605 5.66699C118.708 6.29099 118.766 6.92174 118.778 7.5542C118.781 7.8374 118.781 8.1416 118.781 8.44434C118.789 8.81934 118.789 9.17627 118.789 9.53613V30.4648C118.789 30.8281 118.789 31.1826 118.781 31.54C118.781 31.8652 118.781 32.1631 118.777 32.4697C118.766 33.0909 118.709 33.7104 118.606 34.3232C118.513 34.9043 118.331 35.4675 118.066 35.9932C117.803 36.5056 117.46 36.9733 117.051 37.3789C116.642 37.7927 116.17 38.1379 115.651 38.4014C115.126 38.6674 114.564 38.8527 113.983 38.9512C113.365 39.0522 112.741 39.1067 112.114 39.1143C111.821 39.1211 111.515 39.125 111.217 39.125L110.133 39.127L8.44291 39.125Z" fill="black"/>
<ellipse cx="22.4368" cy="19.1555" rx="12.2024" ry="12.2024" fill="white"/>
<path fill-rule="evenodd" clip-rule="evenodd" d="M22.5103 6C15.5924 6 10 11.7291 10 18.8169C10 24.4825 13.5833 29.2783 18.5542 30.9757C19.1757 31.1033 19.4034 30.6999 19.4034 30.3606C19.4034 30.0634 19.3829 29.045 19.3829 27.9838C15.9028 28.7478 15.1781 26.4559 15.1781 26.4559C14.6188 24.9705 13.7902 24.5887 13.7902 24.5887C12.6512 23.8036 13.8732 23.8036 13.8732 23.8036C15.1366 23.8885 15.7996 25.1192 15.7996 25.1192C16.9179 27.0713 18.7199 26.5197 19.4449 26.1801C19.5483 25.3525 19.8799 24.7796 20.232 24.4614C17.4564 24.1642 14.5361 23.0609 14.5361 18.1377C14.5361 16.7372 15.0329 15.5914 15.8201 14.7002C15.6959 14.382 15.2608 13.0661 15.9446 11.3049C15.9446 11.3049 17.0009 10.9653 19.3826 12.6205C20.4023 12.34 21.454 12.1973 22.5103 12.1961C23.5667 12.1961 24.6435 12.3448 25.6378 12.6205C28.0198 10.9653 29.0761 11.3049 29.0761 11.3049C29.7599 13.0661 29.3245 14.382 29.2003 14.7002C30.0083 15.5914 30.4846 16.7372 30.4846 18.1377C30.4846 23.0609 27.5643 24.1429 24.7679 24.4614C25.2237 24.8645 25.6171 25.6283 25.6171 26.8379C25.6171 28.5567 25.5966 29.9361 25.5966 30.3603C25.5966 30.6999 25.8245 31.1033 26.4457 30.9759C31.4167 29.278 34.9999 24.4825 34.9999 18.8169C35.0204 11.7291 29.4075 6 22.5103 6Z" fill="#24292F"/>
<path d="M46.9443 15.0928C46.4528 15.0928 46.0264 14.9805 45.665 14.7559C45.3037 14.5312 45.0238 14.2139 44.8252 13.8037C44.6266 13.3936 44.5273 12.9102 44.5273 12.3535V12.3438C44.5273 11.7969 44.625 11.3216 44.8203 10.918C45.0189 10.5143 45.2988 10.2018 45.6602 9.98047C46.0215 9.75586 46.4479 9.64355 46.9395 9.64355C47.3659 9.64355 47.7337 9.71842 48.043 9.86816C48.3522 10.0179 48.5996 10.2197 48.7852 10.4736C48.9707 10.7243 49.0895 11.0059 49.1416 11.3184L49.1465 11.3477H48.3018L48.2969 11.333C48.2318 11.0726 48.0837 10.8512 47.8525 10.6689C47.6214 10.4867 47.3171 10.3955 46.9395 10.3955C46.6237 10.3955 46.3503 10.4753 46.1191 10.6348C45.888 10.7943 45.709 11.0205 45.582 11.3135C45.4583 11.6032 45.3965 11.9466 45.3965 12.3438V12.3535C45.3965 12.7572 45.46 13.1087 45.5869 13.4082C45.7139 13.7044 45.8929 13.9339 46.124 14.0967C46.3551 14.2594 46.627 14.3408 46.9395 14.3408C47.2943 14.3408 47.584 14.2643 47.8086 14.1113C48.0332 13.9583 48.1943 13.7354 48.292 13.4424L48.3018 13.4131L49.1416 13.4082L49.1318 13.4619C49.0602 13.7777 48.9333 14.0592 48.751 14.3066C48.5687 14.5508 48.3278 14.7428 48.0283 14.8828C47.7288 15.0228 47.3675 15.0928 46.9443 15.0928ZM52.5498 15.0928C52.0518 15.0928 51.6204 14.9837 51.2559 14.7656C50.8945 14.5443 50.6146 14.2301 50.416 13.8232C50.2207 13.4163 50.123 12.9329 50.123 12.373V12.3633C50.123 11.8001 50.2207 11.3151 50.416 10.9082C50.6146 10.5013 50.8945 10.1888 51.2559 9.9707C51.6204 9.7526 52.0518 9.64355 52.5498 9.64355C53.0511 9.64355 53.4824 9.7526 53.8438 9.9707C54.2051 10.1888 54.4834 10.5013 54.6787 10.9082C54.8773 11.3151 54.9766 11.8001 54.9766 12.3633V12.373C54.9766 12.9329 54.8773 13.4163 54.6787 13.8232C54.4834 14.2301 54.2051 14.5443 53.8438 14.7656C53.4824 14.9837 53.0511 15.0928 52.5498 15.0928ZM52.5498 14.3408C52.8818 14.3408 53.1634 14.2627 53.3945 14.1064C53.6257 13.9502 53.8014 13.7256 53.9219 13.4326C54.0456 13.1396 54.1074 12.7865 54.1074 12.373V12.3633C54.1074 11.9466 54.0456 11.5918 53.9219 11.2988C53.8014 11.0059 53.6257 10.7829 53.3945 10.6299C53.1634 10.4736 52.8818 10.3955 52.5498 10.3955C52.2178 10.3955 51.9362 10.4736 51.7051 10.6299C51.474 10.7829 51.2965 11.0059 51.1729 11.2988C51.0524 11.5918 50.9922 11.9466 50.9922 12.3633V12.373C50.9922 12.7865 51.0524 13.1396 51.1729 13.4326C51.2965 13.7256 51.474 13.9502 51.7051 14.1064C51.9362 14.2627 52.2178 14.3408 52.5498 14.3408ZM56.2949 15V9.73633H57.1445V10.5273H57.2227C57.3561 10.2474 57.5482 10.0309 57.7988 9.87793C58.0495 9.72168 58.3685 9.64355 58.7559 9.64355C59.3483 9.64355 59.8024 9.81283 60.1182 10.1514C60.4372 10.4867 60.5967 10.9668 60.5967 11.5918V15H59.7471V11.7969C59.7471 11.3216 59.6462 10.9701 59.4443 10.7422C59.2458 10.5111 58.9365 10.3955 58.5166 10.3955C58.2367 10.3955 57.9941 10.4557 57.7891 10.5762C57.584 10.6966 57.4245 10.8675 57.3105 11.0889C57.1999 11.3102 57.1445 11.5755 57.1445 11.8848V15H56.2949ZM62.1348 15V9.73633H62.9844V10.5273H63.0625C63.196 10.2474 63.388 10.0309 63.6387 9.87793C63.8893 9.72168 64.2083 9.64355 64.5957 9.64355C65.1882 9.64355 65.6423 9.81283 65.958 10.1514C66.277 10.4867 66.4365 10.9668 66.4365 11.5918V15H65.5869V11.7969C65.5869 11.3216 65.486 10.9701 65.2842 10.7422C65.0856 10.5111 64.7764 10.3955 64.3564 10.3955C64.0765 10.3955 63.834 10.4557 63.6289 10.5762C63.4238 10.6966 63.2643 10.8675 63.1504 11.0889C63.0397 11.3102 62.9844 11.5755 62.9844 11.8848V15H62.1348ZM70.123 15.0928C69.6217 15.0928 69.1904 14.9821 68.8291 14.7607C68.471 14.5394 68.1943 14.2269 67.999 13.8232C67.807 13.4163 67.7109 12.9378 67.7109 12.3877V12.3828C67.7109 11.8392 67.807 11.3623 67.999 10.9521C68.1943 10.542 68.4694 10.2214 68.8242 9.99023C69.179 9.75911 69.5941 9.64355 70.0693 9.64355C70.5479 9.64355 70.958 9.75423 71.2998 9.97559C71.6449 10.1969 71.9085 10.5062 72.0908 10.9033C72.2764 11.2972 72.3691 11.7562 72.3691 12.2803V12.6123H68.1504V11.9336H71.9346L71.5146 12.5537V12.2168C71.5146 11.8034 71.4528 11.4632 71.3291 11.1963C71.2054 10.9294 71.0345 10.7308 70.8164 10.6006C70.5983 10.4671 70.3477 10.4004 70.0645 10.4004C69.7812 10.4004 69.5273 10.4704 69.3027 10.6104C69.0814 10.7471 68.9056 10.9505 68.7754 11.2207C68.6452 11.4909 68.5801 11.8229 68.5801 12.2168V12.5537C68.5801 12.9281 68.6436 13.2487 68.7705 13.5156C68.8975 13.7793 69.0781 13.9827 69.3125 14.126C69.5469 14.266 69.8236 14.3359 70.1426 14.3359C70.3802 14.3359 70.5869 14.3034 70.7627 14.2383C70.9385 14.1732 71.0833 14.0902 71.1973 13.9893C71.3112 13.8883 71.391 13.7858 71.4365 13.6816L71.4561 13.6377H72.3057L72.2959 13.6768C72.2503 13.8558 72.1689 14.0299 72.0518 14.1992C71.9378 14.3652 71.7897 14.5166 71.6074 14.6533C71.4251 14.7868 71.2087 14.8942 70.958 14.9756C70.7106 15.0537 70.4323 15.0928 70.123 15.0928ZM75.8408 15.0928C75.3493 15.0928 74.9229 14.9805 74.5615 14.7559C74.2002 14.5312 73.9202 14.2139 73.7217 13.8037C73.5231 13.3936 73.4238 12.9102 73.4238 12.3535V12.3438C73.4238 11.7969 73.5215 11.3216 73.7168 10.918C73.9154 10.5143 74.1953 10.2018 74.5566 9.98047C74.918 9.75586 75.3444 9.64355 75.8359 9.64355C76.2624 9.64355 76.6302 9.71842 76.9395 9.86816C77.2487 10.0179 77.4961 10.2197 77.6816 10.4736C77.8672 10.7243 77.986 11.0059 78.0381 11.3184L78.043 11.3477H77.1982L77.1934 11.333C77.1283 11.0726 76.9801 10.8512 76.749 10.6689C76.5179 10.4867 76.2135 10.3955 75.8359 10.3955C75.5202 10.3955 75.2467 10.4753 75.0156 10.6348C74.7845 10.7943 74.6055 11.0205 74.4785 11.3135C74.3548 11.6032 74.293 11.9466 74.293 12.3438V12.3535C74.293 12.7572 74.3564 13.1087 74.4834 13.4082C74.6104 13.7044 74.7894 13.9339 75.0205 14.0967C75.2516 14.2594 75.5234 14.3408 75.8359 14.3408C76.1908 14.3408 76.4805 14.2643 76.7051 14.1113C76.9297 13.9583 77.0908 13.7354 77.1885 13.4424L77.1982 13.4131L78.0381 13.4082L78.0283 13.4619C77.9567 13.7777 77.8298 14.0592 77.6475 14.3066C77.4652 14.5508 77.2243 14.7428 76.9248 14.8828C76.6253 15.0228 76.264 15.0928 75.8408 15.0928ZM81.251 15.0391C80.7106 15.0391 80.3184 14.93 80.0742 14.7119C79.8333 14.4938 79.7129 14.1341 79.7129 13.6328V10.4395H78.8828V9.73633H79.7129V8.37402H80.5918V9.73633H81.7441V10.4395H80.5918V13.418C80.5918 13.7272 80.6504 13.9502 80.7676 14.0869C80.8848 14.2204 81.0801 14.2871 81.3535 14.2871C81.4284 14.2871 81.4919 14.2855 81.5439 14.2822C81.5993 14.279 81.666 14.2741 81.7441 14.2676V14.9902C81.6628 15.0033 81.5814 15.0146 81.5 15.0244C81.4186 15.0342 81.3356 15.0391 81.251 15.0391ZM87.6963 15.0391C87.1559 15.0391 86.7637 14.93 86.5195 14.7119C86.2786 14.4938 86.1582 14.1341 86.1582 13.6328V10.4395H85.3281V9.73633H86.1582V8.37402H87.0371V9.73633H88.1895V10.4395H87.0371V13.418C87.0371 13.7272 87.0957 13.9502 87.2129 14.0869C87.3301 14.2204 87.5254 14.2871 87.7988 14.2871C87.8737 14.2871 87.9372 14.2855 87.9893 14.2822C88.0446 14.279 88.1113 14.2741 88.1895 14.2676V14.9902C88.1081 15.0033 88.0267 15.0146 87.9453 15.0244C87.8639 15.0342 87.7809 15.0391 87.6963 15.0391ZM91.5537 15.0928C91.0557 15.0928 90.6243 14.9837 90.2598 14.7656C89.8984 14.5443 89.6185 14.2301 89.4199 13.8232C89.2246 13.4163 89.127 12.9329 89.127 12.373V12.3633C89.127 11.8001 89.2246 11.3151 89.4199 10.9082C89.6185 10.5013 89.8984 10.1888 90.2598 9.9707C90.6243 9.7526 91.0557 9.64355 91.5537 9.64355C92.055 9.64355 92.4863 9.7526 92.8477 9.9707C93.209 10.1888 93.4873 10.5013 93.6826 10.9082C93.8812 11.3151 93.9805 11.8001 93.9805 12.3633V12.373C93.9805 12.9329 93.8812 13.4163 93.6826 13.8232C93.4873 14.2301 93.209 14.5443 92.8477 14.7656C92.4863 14.9837 92.055 15.0928 91.5537 15.0928ZM91.5537 14.3408C91.8857 14.3408 92.1673 14.2627 92.3984 14.1064C92.6296 13.9502 92.8053 13.7256 92.9258 13.4326C93.0495 13.1396 93.1113 12.7865 93.1113 12.373V12.3633C93.1113 11.9466 93.0495 11.5918 92.9258 11.2988C92.8053 11.0059 92.6296 10.7829 92.3984 10.6299C92.1673 10.4736 91.8857 10.3955 91.5537 10.3955C91.2217 10.3955 90.9401 10.4736 90.709 10.6299C90.4779 10.7829 90.3005 11.0059 90.1768 11.2988C90.0563 11.5918 89.9961 11.9466 89.9961 12.3633V12.373C89.9961 12.7865 90.0563 13.1396 90.1768 13.4326C90.3005 13.7256 90.4779 13.9502 90.709 14.1064C90.9401 14.2627 91.2217 14.3408 91.5537 14.3408Z" fill="white"/>
<path d="M49.8228 30.2637C49.0562 30.2637 48.3677 30.1367 47.7573 29.8828C47.147 29.624 46.6245 29.2529 46.1899 28.7695C45.7603 28.2861 45.4307 27.7051 45.2012 27.0264C44.9717 26.3428 44.8569 25.5737 44.8569 24.7192V24.7046C44.8569 23.5767 45.0596 22.6001 45.4648 21.7749C45.8701 20.9448 46.4414 20.3027 47.1787 19.8486C47.9209 19.3945 48.7925 19.1675 49.7935 19.1675C50.6089 19.1675 51.3364 19.314 51.9761 19.6069C52.6206 19.895 53.1479 20.3003 53.5581 20.8228C53.9683 21.3403 54.2295 21.9434 54.3418 22.6318L54.3564 22.7051H52.4814L52.4595 22.6318C52.2886 22.0508 51.9712 21.6016 51.5073 21.2842C51.0435 20.9619 50.4722 20.8008 49.7935 20.8008C49.1782 20.8008 48.6436 20.9595 48.1895 21.2769C47.7402 21.5942 47.3936 22.0435 47.1494 22.6245C46.9053 23.2056 46.7832 23.894 46.7832 24.6899V24.7046C46.7832 25.3101 46.854 25.8545 46.9956 26.3379C47.1372 26.8213 47.3398 27.2339 47.6035 27.5757C47.8721 27.9175 48.1943 28.1787 48.5703 28.3594C48.9512 28.54 49.3784 28.6304 49.8521 28.6304C50.3892 28.6304 50.8604 28.5254 51.2656 28.3154C51.6758 28.1055 51.9956 27.8125 52.2251 27.4365C52.4595 27.0605 52.5815 26.6235 52.5913 26.1255V25.9058H50.0571V24.4629H54.437V25.7812C54.437 26.4648 54.3296 27.0825 54.1147 27.6343C53.8999 28.186 53.5898 28.6572 53.1846 29.0479C52.7842 29.4385 52.2983 29.7388 51.7271 29.9487C51.1606 30.1587 50.5259 30.2637 49.8228 30.2637ZM56.4731 30V21.9946H58.2896V30H56.4731ZM57.3887 20.6543C57.0908 20.6543 56.8345 20.5493 56.6196 20.3394C56.4048 20.1294 56.2974 19.8779 56.2974 19.585C56.2974 19.2822 56.4048 19.0283 56.6196 18.8232C56.8345 18.6133 57.0908 18.5083 57.3887 18.5083C57.6865 18.5083 57.9404 18.6133 58.1504 18.8232C58.3652 19.0283 58.4727 19.2822 58.4727 19.585C58.4727 19.8779 58.3652 20.1294 58.1504 20.3394C57.9404 20.5493 57.6865 20.6543 57.3887 20.6543ZM63.6875 30.0366C62.7695 30.0366 62.1079 29.8682 61.7026 29.5312C61.2974 29.1943 61.0947 28.6426 61.0947 27.876V23.4082H59.8496V21.9946H61.0947V20.0317H62.9478V21.9946H64.6323V23.4082H62.9478V27.4438C62.9478 27.8394 63.0308 28.1299 63.1968 28.3154C63.3677 28.4961 63.6411 28.5864 64.0171 28.5864C64.1489 28.5864 64.2563 28.584 64.3394 28.5791C64.4272 28.5693 64.5249 28.5596 64.6323 28.5498V29.9561C64.5054 29.9805 64.3589 30 64.1929 30.0146C64.0317 30.0293 63.8633 30.0366 63.6875 30.0366ZM66.5293 30V18.8965H68.353V23.2251H68.4775C68.668 22.7905 68.9561 22.4512 69.3418 22.207C69.7275 21.9629 70.2085 21.8408 70.7847 21.8408C71.3804 21.8408 71.8833 21.958 72.2935 22.1924C72.7036 22.4219 73.0137 22.7588 73.2236 23.2031C73.4385 23.6475 73.5459 24.187 73.5459 24.8218V30H71.7222V25.2466C71.7222 24.6216 71.5903 24.1528 71.3267 23.8403C71.0679 23.5278 70.6626 23.3716 70.1108 23.3716C69.7495 23.3716 69.437 23.4521 69.1733 23.6133C68.9097 23.7744 68.707 24.0015 68.5654 24.2944C68.4238 24.5874 68.353 24.9341 68.353 25.3345V30H66.5293ZM78.3506 30.1611C77.7549 30.1611 77.2544 30.0464 76.8491 29.8169C76.4438 29.5825 76.1387 29.2432 75.9336 28.7988C75.7285 28.3496 75.626 27.8076 75.626 27.1729V21.9946H77.4497V26.7554C77.4497 27.3755 77.5718 27.8418 77.8159 28.1543C78.0601 28.4668 78.458 28.623 79.0098 28.623C79.3027 28.623 79.5615 28.5791 79.7861 28.4912C80.0156 28.3984 80.2061 28.2666 80.3574 28.0957C80.5088 27.9248 80.6235 27.7197 80.7017 27.4805C80.7798 27.2363 80.8188 26.9629 80.8188 26.6602V21.9946H82.6426V30H80.8188V28.7842H80.6943C80.5723 29.0674 80.4014 29.314 80.1816 29.5239C79.9619 29.729 79.6982 29.8877 79.3906 30C79.083 30.1074 78.7363 30.1611 78.3506 30.1611ZM89.3223 30.1318C88.9463 30.1318 88.6021 30.0781 88.2896 29.9707C87.9771 29.8584 87.7012 29.6997 87.4619 29.4946C87.2275 29.2847 87.0371 29.0356 86.8906 28.7476H86.7661V30H84.9424V18.8965H86.7661V23.269H86.8906C87.0322 22.981 87.2227 22.7319 87.4619 22.522C87.7012 22.312 87.9795 22.1509 88.2969 22.0386C88.6143 21.9214 88.9561 21.8628 89.3223 21.8628C89.9961 21.8628 90.5771 22.0312 91.0654 22.3682C91.5586 22.7002 91.9395 23.1763 92.208 23.7964C92.4766 24.4116 92.6108 25.144 92.6108 25.9937V26.0083C92.6108 26.8481 92.4741 27.5781 92.2007 28.1982C91.9321 28.8184 91.5513 29.2969 91.0581 29.6338C90.5698 29.9658 89.9912 30.1318 89.3223 30.1318ZM88.751 28.5938C89.166 28.5938 89.5225 28.4912 89.8203 28.2861C90.1182 28.0762 90.3477 27.7783 90.5088 27.3926C90.6699 27.0068 90.7505 26.5454 90.7505 26.0083V25.9937C90.7505 25.4565 90.6699 24.9951 90.5088 24.6094C90.3477 24.2188 90.1182 23.9209 89.8203 23.7158C89.5225 23.5059 89.166 23.4009 88.751 23.4009C88.3408 23.4009 87.9844 23.5059 87.6816 23.7158C87.3789 23.9258 87.1445 24.2236 86.9785 24.6094C86.8174 24.9951 86.7368 25.4565 86.7368 25.9937V26.0083C86.7368 26.5405 86.8174 27.002 86.9785 27.3926C87.1445 27.7783 87.3765 28.0762 87.6743 28.2861C87.9771 28.4912 88.3359 28.5938 88.751 28.5938Z" fill="white"/>
</svg>
