<svg width="88" height="52" viewBox="0 0 88 52" fill="none" xmlns="http://www.w3.org/2000/svg">
<g id="Group 13">
<circle id="Ellipse 21" cx="26" cy="26" r="26" fill="#5ED3F3"/>
<path id="Vector" d="M26 22.7938C25.6255 22.7938 25.2546 22.8767 24.9086 23.0378C24.5626 23.1989 24.2482 23.435 23.9833 23.7327C23.7185 24.0303 23.5084 24.3837 23.3651 24.7726C23.2218 25.1615 23.148 25.5783 23.148 25.9993C23.148 26.4202 23.2218 26.837 23.3651 27.226C23.5084 27.6149 23.7185 27.9682 23.9833 28.2659C24.2482 28.5635 24.5626 28.7997 24.9086 28.9607C25.2546 29.1218 25.6255 29.2047 26 29.2047C26.3745 29.2047 26.7454 29.1218 27.0914 28.9607C27.4374 28.7997 27.7518 28.5635 28.0167 28.2659C28.2815 27.9682 28.4916 27.6149 28.6349 27.226C28.7782 26.837 28.852 26.4202 28.852 25.9993C28.852 25.5783 28.7782 25.1615 28.6349 24.7726C28.4916 24.3837 28.2815 24.0303 28.0167 23.7327C27.7518 23.435 27.4374 23.1989 27.0914 23.0378C26.7454 22.8767 26.3745 22.7938 26 22.7938ZM18.0107 32.3757L17.3813 32.1959C12.6907 30.8637 10 28.6023 10 25.9933C10 23.3843 12.6907 21.1229 17.3813 19.7907L18.0107 19.6123L18.188 20.3137C18.6632 22.1535 19.271 23.9467 20.0053 25.6756L20.14 25.9948L20.0053 26.314C19.2697 28.0422 18.6619 29.8356 18.188 31.6759L18.0107 32.3757ZM17.0893 21.4286C13.524 22.554 11.336 24.2759 11.336 25.9933C11.336 27.7092 13.524 29.431 17.0893 30.558C17.5254 28.9993 18.0518 27.4745 18.6653 25.9933C18.0511 24.5124 17.5246 22.9875 17.0893 21.4286ZM33.9893 32.3757L33.812 31.6729C33.3373 29.8332 32.729 28.0403 31.9933 26.3125L31.8587 25.9933L31.9933 25.6741C32.7288 23.9456 33.337 22.1523 33.812 20.3122L33.9893 19.6108L34.62 19.7892C39.3093 21.1214 42 23.3828 42 25.9933C42 28.6038 39.3093 30.8637 34.62 32.1959L33.9893 32.3757ZM33.3347 25.9933C33.9747 27.5503 34.504 29.0804 34.9107 30.558C38.4773 29.431 40.664 27.7092 40.664 25.9933C40.664 24.2759 38.476 22.5555 34.9107 21.4286C34.4752 22.9875 33.9487 24.5123 33.3347 25.9933ZM17.08 21.4211L16.9027 20.7213C15.584 15.4972 15.984 11.7538 18 10.447C19.9773 9.16422 23.152 10.6793 26.4787 14.5172L26.932 15.0402L26.4787 15.5632C25.2966 16.9443 24.2166 18.4313 23.2493 20.0094L23.0693 20.2987L22.756 20.3286C21.0545 20.4794 19.3668 20.7851 17.7093 21.2428L17.08 21.4211ZM19.608 11.4855C19.2507 11.4855 18.9347 11.5724 18.668 11.7448C17.3427 12.6035 17.108 15.5886 18.0213 19.6168C19.4422 19.2616 20.8821 19.0108 22.332 18.866C23.1686 17.5291 24.0825 16.2556 25.068 15.0536C22.988 12.7773 21.0187 11.4855 19.608 11.4855ZM32.3933 41.9996C32.392 41.9996 32.392 41.9996 32.3933 41.9996C30.4933 41.9996 28.0533 40.3916 25.5213 37.4694L25.068 36.9464L25.5213 36.4234C26.7031 35.0419 27.7827 33.5543 28.7493 31.9756L28.9293 31.6864L29.2413 31.6564C30.9437 31.5065 32.6323 31.2013 34.2907 30.7438L34.92 30.5655L35.0987 31.2668C36.4147 36.4878 36.016 40.2328 34 41.5381C33.5103 41.8493 32.9558 42.0085 32.3933 41.9996ZM26.932 36.9329C29.012 39.2093 30.9813 40.501 32.392 40.501C32.748 40.501 33.0667 40.4141 33.332 40.2418C34.6573 39.3831 34.8933 36.3964 33.9787 32.3682C32.5575 32.724 31.117 32.9748 29.6667 33.119C28.8311 34.4569 27.9176 35.731 26.932 36.9329ZM34.92 21.4211L34.2907 21.2428C32.6326 20.7838 30.9438 20.4781 29.2413 20.3286L28.9293 20.2987L28.7493 20.0094C27.7832 18.4308 26.7035 16.9437 25.5213 15.5632L25.068 15.0402L25.5213 14.5172C28.8467 10.6808 32.02 9.16572 34 10.447C36.016 11.7538 36.416 15.4972 35.0987 20.7198L34.92 21.4211ZM29.6667 18.866C31.1893 19.0219 32.636 19.2751 33.9787 19.6168C34.8933 15.5886 34.6573 12.6035 33.332 11.7448C32.0147 10.8891 29.5387 12.2003 26.932 15.0536C27.917 16.2556 28.8305 17.5292 29.6667 18.866ZM19.608 41.9996C19.0451 42.0088 18.4901 41.8495 18 41.5381C15.984 40.2328 15.584 36.4893 16.9027 31.2668L17.0787 30.5655L17.708 30.7438C19.248 31.1799 20.9467 31.4871 22.7547 31.6564L23.068 31.6864L23.2467 31.9756C24.2141 33.5541 25.2941 35.0416 26.476 36.4234L26.9293 36.9464L26.476 37.4694C23.9453 40.3916 21.5053 41.9996 19.608 41.9996ZM18.0213 32.3682C17.1067 36.3964 17.3427 39.3831 18.668 40.2418C19.984 41.0855 22.4587 39.7847 25.068 36.9329C24.0829 35.7301 23.169 34.4561 22.332 33.119C20.8821 32.9749 19.4421 32.7241 18.0213 32.3682ZM26 33.3094C24.9027 33.3094 23.7747 33.2554 22.6453 33.1505L22.332 33.1205L22.152 32.8313C21.5132 31.7997 20.9127 30.7388 20.352 29.6513C19.793 28.563 19.2743 27.4491 18.7973 26.3125L18.6653 25.9933L18.7973 25.6741C19.2742 24.5374 19.7929 23.4235 20.352 22.3352C20.904 21.2623 21.5107 20.1923 22.152 19.1553L22.332 18.866L22.6453 18.8361C24.8782 18.6233 27.1231 18.6233 29.356 18.8361L29.668 18.866L29.8467 19.1553C31.1256 21.2189 32.2482 23.3995 33.2027 25.6741L33.3373 25.9933L33.2027 26.3125C32.2504 28.5884 31.1277 30.7692 29.8467 32.8313L29.668 33.1205L29.356 33.1505C28.2267 33.2554 27.0973 33.3094 26 33.3094ZM23.0707 31.6849C25.044 31.8512 26.956 31.8512 28.9307 31.6849C30.0331 29.8735 31.0119 27.9708 31.8587 25.9933C31.0134 24.0145 30.0341 22.1117 28.9293 20.3017C26.9792 20.1353 25.0208 20.1353 23.0707 20.3017C21.9654 22.1114 20.9861 24.0142 20.1413 25.9933C20.989 27.9706 21.9682 29.8732 23.0707 31.6849Z" fill="white"/>
<circle id="Ellipse 22" cx="62" cy="26" r="26" fill="url(#paint0_linear_4_46)"/>
<path id="Vector_2" d="M75.5089 33.012C77.8438 25.7638 74.2082 16.1282 66.3845 10C69.7874 15.7162 70.9102 22.0125 68.5379 26.9922C63.2338 23.1937 52.8041 13.1365 52.8041 13.1365C52.8041 13.1365 57.6942 21.356 61.4152 25.3484C57.6942 22.8824 55.6741 21.1212 49.1892 15.1329C53.6311 23.1854 61.2221 30.4881 63.9665 33.012C55.6741 37.9125 46 30.8671 46 30.8671C47.6618 33.6585 50.0078 35.7498 52.8041 37.9125C60.471 43.8417 68.1127 42.4038 71.0898 39.3511C71.0898 39.3511 72 38.2243 73.9598 38.8561C75.3236 39.2956 77.1322 40.8888 77.7857 41.6334C77.9258 40.9658 78 40.2706 78 39.5563C78 36.9923 77.0463 34.6742 75.5089 33.012Z" fill="white"/>
</g>
<defs>
<linearGradient id="paint0_linear_4_46" x1="62" y1="13" x2="62" y2="61.3333" gradientUnits="userSpaceOnUse">
<stop stop-color="#F3A63C"/>
<stop offset="1" stop-color="#F73828"/>
</linearGradient>
</defs>
</svg>
