<svg width="120" height="40" viewBox="0 0 120 40" fill="none" xmlns="http://www.w3.org/2000/svg">
<path d="M110.135 0.00013H9.53468C9.16798 0.00013 8.80568 0.00013 8.43995 0.00213C8.1338 0.00413 7.83009 0.00994 7.521 0.01483C6.84951 0.0227318 6.17961 0.0818063 5.5171 0.19154C4.85552 0.303663 4.21467 0.515046 3.61622 0.81854C3.0185 1.1246 2.47235 1.5223 1.99757 1.9972C1.5203 2.47077 1.12246 3.01815 0.81935 3.61829C0.5154 4.21724 0.304641 4.85907 0.19435 5.52161C0.0830109 6.18332 0.0230984 6.85265 0.01515 7.52361C0.00587 7.83021 0.00489 8.13783 0 8.44447V31.5587C0.00489 31.8692 0.00587 32.17 0.01515 32.4806C0.0231008 33.1516 0.0830134 33.8209 0.19435 34.4825C0.304336 35.1455 0.515108 35.7877 0.81935 36.3868C1.12233 36.985 1.52022 37.5302 1.99757 38.0011C2.47054 38.4781 3.01705 38.8761 3.61622 39.1798C4.21467 39.4841 4.85545 39.6968 5.5171 39.8106C6.17972 39.9195 6.84956 39.9786 7.521 39.9874C7.83009 39.9942 8.1338 39.9981 8.43995 39.9981C8.80567 40.0001 9.168 40.0001 9.53468 40.0001H110.135C110.494 40.0001 110.859 40.0001 111.219 39.9981C111.523 39.9981 111.836 39.9942 112.141 39.9874C112.811 39.9791 113.479 39.92 114.141 39.8106C114.804 39.696 115.448 39.4834 116.049 39.1798C116.647 38.8759 117.193 38.478 117.666 38.0011C118.142 37.5284 118.541 36.9836 118.848 36.3868C119.15 35.7872 119.358 35.1451 119.467 34.4825C119.578 33.8208 119.64 33.1516 119.652 32.4806C119.656 32.17 119.656 31.8692 119.656 31.5587C119.664 31.1954 119.664 30.8341 119.664 30.4649V9.53626C119.664 9.17005 119.664 8.80677 119.656 8.44447C119.656 8.13783 119.656 7.83021 119.652 7.52357C119.64 6.85255 119.578 6.18337 119.467 5.52157C119.358 4.85941 119.149 4.21763 118.848 3.61825C118.23 2.41533 117.252 1.43616 116.049 0.81845C115.448 0.515697 114.804 0.30437 114.141 0.19145C113.48 0.0812328 112.811 0.0221378 112.141 0.01469C111.836 0.00981 111.523 0.00395 111.219 0.002C110.859 0 110.494 0.00013 110.135 0.00013Z" fill="#A6A6A6"/>
<path d="M8.44291 39.125C8.13823 39.125 7.84091 39.1211 7.53862 39.1143C6.91241 39.1061 6.28765 39.0516 5.66948 38.9512C5.09307 38.8519 4.53469 38.6673 4.01274 38.4033C3.49559 38.1415 3.0239 37.7983 2.61574 37.3867C2.20168 36.98 1.85696 36.5082 1.59523 35.9902C1.33062 35.4688 1.1475 34.9099 1.05223 34.333C0.949358 33.7131 0.893698 33.0863 0.885734 32.458C0.879394 32.2471 0.871094 31.5449 0.871094 31.5449V8.44434C0.871094 8.44434 0.879934 7.75293 0.885784 7.5498C0.89341 6.92248 0.948746 6.29665 1.05131 5.67773C1.14675 5.09925 1.33002 4.53875 1.59477 4.01563C1.85554 3.49794 2.19835 3.02586 2.60991 2.61768C3.02102 2.20562 3.49422 1.8606 4.01225 1.59521C4.533 1.33209 5.09033 1.14873 5.66557 1.05127C6.28577 0.949836 6.91269 0.894996 7.54108 0.88721L8.4434 0.875H111.212L112.125 0.8877C112.748 0.895099 113.369 0.94945 113.983 1.05029C114.565 1.14898 115.128 1.33362 115.654 1.59814C116.692 2.13299 117.537 2.97916 118.069 4.01807C118.33 4.53758 118.51 5.09351 118.605 5.66699C118.708 6.29099 118.766 6.92174 118.778 7.5542C118.781 7.8374 118.781 8.1416 118.781 8.44434C118.789 8.81934 118.789 9.17627 118.789 9.53613V30.4648C118.789 30.8281 118.789 31.1826 118.781 31.54C118.781 31.8652 118.781 32.1631 118.777 32.4697C118.766 33.0909 118.709 33.7104 118.606 34.3232C118.513 34.9043 118.331 35.4675 118.066 35.9932C117.803 36.5056 117.46 36.9733 117.051 37.3789C116.642 37.7927 116.17 38.1379 115.651 38.4014C115.126 38.6674 114.564 38.8527 113.983 38.9512C113.365 39.0522 112.741 39.1067 112.114 39.1143C111.821 39.1211 111.515 39.125 111.217 39.125L110.133 39.127L8.44291 39.125Z" fill="black"/>
<path d="M46.9443 15.0928C46.4528 15.0928 46.0264 14.9805 45.665 14.7559C45.3037 14.5312 45.0238 14.2139 44.8252 13.8037C44.6266 13.3936 44.5273 12.9102 44.5273 12.3535V12.3438C44.5273 11.7969 44.625 11.3216 44.8203 10.918C45.0189 10.5143 45.2988 10.2018 45.6602 9.98047C46.0215 9.75586 46.4479 9.64355 46.9395 9.64355C47.3659 9.64355 47.7337 9.71842 48.043 9.86816C48.3522 10.0179 48.5996 10.2197 48.7852 10.4736C48.9707 10.7243 49.0895 11.0059 49.1416 11.3184L49.1465 11.3477H48.3018L48.2969 11.333C48.2318 11.0726 48.0837 10.8512 47.8525 10.6689C47.6214 10.4867 47.3171 10.3955 46.9395 10.3955C46.6237 10.3955 46.3503 10.4753 46.1191 10.6348C45.888 10.7943 45.709 11.0205 45.582 11.3135C45.4583 11.6032 45.3965 11.9466 45.3965 12.3438V12.3535C45.3965 12.7572 45.46 13.1087 45.5869 13.4082C45.7139 13.7044 45.8929 13.9339 46.124 14.0967C46.3551 14.2594 46.627 14.3408 46.9395 14.3408C47.2943 14.3408 47.584 14.2643 47.8086 14.1113C48.0332 13.9583 48.1943 13.7354 48.292 13.4424L48.3018 13.4131L49.1416 13.4082L49.1318 13.4619C49.0602 13.7777 48.9333 14.0592 48.751 14.3066C48.5687 14.5508 48.3278 14.7428 48.0283 14.8828C47.7288 15.0228 47.3675 15.0928 46.9443 15.0928ZM52.5498 15.0928C52.0518 15.0928 51.6204 14.9837 51.2559 14.7656C50.8945 14.5443 50.6146 14.2301 50.416 13.8232C50.2207 13.4163 50.123 12.9329 50.123 12.373V12.3633C50.123 11.8001 50.2207 11.3151 50.416 10.9082C50.6146 10.5013 50.8945 10.1888 51.2559 9.9707C51.6204 9.7526 52.0518 9.64355 52.5498 9.64355C53.0511 9.64355 53.4824 9.7526 53.8438 9.9707C54.2051 10.1888 54.4834 10.5013 54.6787 10.9082C54.8773 11.3151 54.9766 11.8001 54.9766 12.3633V12.373C54.9766 12.9329 54.8773 13.4163 54.6787 13.8232C54.4834 14.2301 54.2051 14.5443 53.8438 14.7656C53.4824 14.9837 53.0511 15.0928 52.5498 15.0928ZM52.5498 14.3408C52.8818 14.3408 53.1634 14.2627 53.3945 14.1064C53.6257 13.9502 53.8014 13.7256 53.9219 13.4326C54.0456 13.1396 54.1074 12.7865 54.1074 12.373V12.3633C54.1074 11.9466 54.0456 11.5918 53.9219 11.2988C53.8014 11.0059 53.6257 10.7829 53.3945 10.6299C53.1634 10.4736 52.8818 10.3955 52.5498 10.3955C52.2178 10.3955 51.9362 10.4736 51.7051 10.6299C51.474 10.7829 51.2965 11.0059 51.1729 11.2988C51.0524 11.5918 50.9922 11.9466 50.9922 12.3633V12.373C50.9922 12.7865 51.0524 13.1396 51.1729 13.4326C51.2965 13.7256 51.474 13.9502 51.7051 14.1064C51.9362 14.2627 52.2178 14.3408 52.5498 14.3408ZM56.2949 15V9.73633H57.1445V10.5273H57.2227C57.3561 10.2474 57.5482 10.0309 57.7988 9.87793C58.0495 9.72168 58.3685 9.64355 58.7559 9.64355C59.3483 9.64355 59.8024 9.81283 60.1182 10.1514C60.4372 10.4867 60.5967 10.9668 60.5967 11.5918V15H59.7471V11.7969C59.7471 11.3216 59.6462 10.9701 59.4443 10.7422C59.2458 10.5111 58.9365 10.3955 58.5166 10.3955C58.2367 10.3955 57.9941 10.4557 57.7891 10.5762C57.584 10.6966 57.4245 10.8675 57.3105 11.0889C57.1999 11.3102 57.1445 11.5755 57.1445 11.8848V15H56.2949ZM62.1348 15V9.73633H62.9844V10.5273H63.0625C63.196 10.2474 63.388 10.0309 63.6387 9.87793C63.8893 9.72168 64.2083 9.64355 64.5957 9.64355C65.1882 9.64355 65.6423 9.81283 65.958 10.1514C66.277 10.4867 66.4365 10.9668 66.4365 11.5918V15H65.5869V11.7969C65.5869 11.3216 65.486 10.9701 65.2842 10.7422C65.0856 10.5111 64.7764 10.3955 64.3564 10.3955C64.0765 10.3955 63.834 10.4557 63.6289 10.5762C63.4238 10.6966 63.2643 10.8675 63.1504 11.0889C63.0397 11.3102 62.9844 11.5755 62.9844 11.8848V15H62.1348ZM70.123 15.0928C69.6217 15.0928 69.1904 14.9821 68.8291 14.7607C68.471 14.5394 68.1943 14.2269 67.999 13.8232C67.807 13.4163 67.7109 12.9378 67.7109 12.3877V12.3828C67.7109 11.8392 67.807 11.3623 67.999 10.9521C68.1943 10.542 68.4694 10.2214 68.8242 9.99023C69.179 9.75911 69.5941 9.64355 70.0693 9.64355C70.5479 9.64355 70.958 9.75423 71.2998 9.97559C71.6449 10.1969 71.9085 10.5062 72.0908 10.9033C72.2764 11.2972 72.3691 11.7562 72.3691 12.2803V12.6123H68.1504V11.9336H71.9346L71.5146 12.5537V12.2168C71.5146 11.8034 71.4528 11.4632 71.3291 11.1963C71.2054 10.9294 71.0345 10.7308 70.8164 10.6006C70.5983 10.4671 70.3477 10.4004 70.0645 10.4004C69.7812 10.4004 69.5273 10.4704 69.3027 10.6104C69.0814 10.7471 68.9056 10.9505 68.7754 11.2207C68.6452 11.4909 68.5801 11.8229 68.5801 12.2168V12.5537C68.5801 12.9281 68.6436 13.2487 68.7705 13.5156C68.8975 13.7793 69.0781 13.9827 69.3125 14.126C69.5469 14.266 69.8236 14.3359 70.1426 14.3359C70.3802 14.3359 70.5869 14.3034 70.7627 14.2383C70.9385 14.1732 71.0833 14.0902 71.1973 13.9893C71.3112 13.8883 71.391 13.7858 71.4365 13.6816L71.4561 13.6377H72.3057L72.2959 13.6768C72.2503 13.8558 72.1689 14.0299 72.0518 14.1992C71.9378 14.3652 71.7897 14.5166 71.6074 14.6533C71.4251 14.7868 71.2087 14.8942 70.958 14.9756C70.7106 15.0537 70.4323 15.0928 70.123 15.0928ZM75.8408 15.0928C75.3493 15.0928 74.9229 14.9805 74.5615 14.7559C74.2002 14.5312 73.9202 14.2139 73.7217 13.8037C73.5231 13.3936 73.4238 12.9102 73.4238 12.3535V12.3438C73.4238 11.7969 73.5215 11.3216 73.7168 10.918C73.9154 10.5143 74.1953 10.2018 74.5566 9.98047C74.918 9.75586 75.3444 9.64355 75.8359 9.64355C76.2624 9.64355 76.6302 9.71842 76.9395 9.86816C77.2487 10.0179 77.4961 10.2197 77.6816 10.4736C77.8672 10.7243 77.986 11.0059 78.0381 11.3184L78.043 11.3477H77.1982L77.1934 11.333C77.1283 11.0726 76.9801 10.8512 76.749 10.6689C76.5179 10.4867 76.2135 10.3955 75.8359 10.3955C75.5202 10.3955 75.2467 10.4753 75.0156 10.6348C74.7845 10.7943 74.6055 11.0205 74.4785 11.3135C74.3548 11.6032 74.293 11.9466 74.293 12.3438V12.3535C74.293 12.7572 74.3564 13.1087 74.4834 13.4082C74.6104 13.7044 74.7894 13.9339 75.0205 14.0967C75.2516 14.2594 75.5234 14.3408 75.8359 14.3408C76.1908 14.3408 76.4805 14.2643 76.7051 14.1113C76.9297 13.9583 77.0908 13.7354 77.1885 13.4424L77.1982 13.4131L78.0381 13.4082L78.0283 13.4619C77.9567 13.7777 77.8298 14.0592 77.6475 14.3066C77.4652 14.5508 77.2243 14.7428 76.9248 14.8828C76.6253 15.0228 76.264 15.0928 75.8408 15.0928ZM81.251 15.0391C80.7106 15.0391 80.3184 14.93 80.0742 14.7119C79.8333 14.4938 79.7129 14.1341 79.7129 13.6328V10.4395H78.8828V9.73633H79.7129V8.37402H80.5918V9.73633H81.7441V10.4395H80.5918V13.418C80.5918 13.7272 80.6504 13.9502 80.7676 14.0869C80.8848 14.2204 81.0801 14.2871 81.3535 14.2871C81.4284 14.2871 81.4919 14.2855 81.5439 14.2822C81.5993 14.279 81.666 14.2741 81.7441 14.2676V14.9902C81.6628 15.0033 81.5814 15.0146 81.5 15.0244C81.4186 15.0342 81.3356 15.0391 81.251 15.0391ZM87.6963 15.0391C87.1559 15.0391 86.7637 14.93 86.5195 14.7119C86.2786 14.4938 86.1582 14.1341 86.1582 13.6328V10.4395H85.3281V9.73633H86.1582V8.37402H87.0371V9.73633H88.1895V10.4395H87.0371V13.418C87.0371 13.7272 87.0957 13.9502 87.2129 14.0869C87.3301 14.2204 87.5254 14.2871 87.7988 14.2871C87.8737 14.2871 87.9372 14.2855 87.9893 14.2822C88.0446 14.279 88.1113 14.2741 88.1895 14.2676V14.9902C88.1081 15.0033 88.0267 15.0146 87.9453 15.0244C87.8639 15.0342 87.7809 15.0391 87.6963 15.0391ZM91.5537 15.0928C91.0557 15.0928 90.6243 14.9837 90.2598 14.7656C89.8984 14.5443 89.6185 14.2301 89.4199 13.8232C89.2246 13.4163 89.127 12.9329 89.127 12.373V12.3633C89.127 11.8001 89.2246 11.3151 89.4199 10.9082C89.6185 10.5013 89.8984 10.1888 90.2598 9.9707C90.6243 9.7526 91.0557 9.64355 91.5537 9.64355C92.055 9.64355 92.4863 9.7526 92.8477 9.9707C93.209 10.1888 93.4873 10.5013 93.6826 10.9082C93.8812 11.3151 93.9805 11.8001 93.9805 12.3633V12.373C93.9805 12.9329 93.8812 13.4163 93.6826 13.8232C93.4873 14.2301 93.209 14.5443 92.8477 14.7656C92.4863 14.9837 92.055 15.0928 91.5537 15.0928ZM91.5537 14.3408C91.8857 14.3408 92.1673 14.2627 92.3984 14.1064C92.6296 13.9502 92.8053 13.7256 92.9258 13.4326C93.0495 13.1396 93.1113 12.7865 93.1113 12.373V12.3633C93.1113 11.9466 93.0495 11.5918 92.9258 11.2988C92.8053 11.0059 92.6296 10.7829 92.3984 10.6299C92.1673 10.4736 91.8857 10.3955 91.5537 10.3955C91.2217 10.3955 90.9401 10.4736 90.709 10.6299C90.4779 10.7829 90.3005 11.0059 90.1768 11.2988C90.0563 11.5918 89.9961 11.9466 89.9961 12.3633V12.373C89.9961 12.7865 90.0563 13.1396 90.1768 13.4326C90.3005 13.7256 90.4779 13.9502 90.709 14.1064C90.9401 14.2627 91.2217 14.3408 91.5537 14.3408Z" fill="white"/>
<path d="M48.9731 30.2637C48.1528 30.2637 47.4399 30.1367 46.8345 29.8828C46.2339 29.6289 45.7603 29.2749 45.4136 28.8208C45.0669 28.3667 44.8716 27.8369 44.8276 27.2314L44.8203 27.1289H46.6514L46.6587 27.2021C46.688 27.5 46.8052 27.7588 47.0103 27.9785C47.2202 28.1982 47.4985 28.3716 47.8452 28.4985C48.1919 28.6206 48.5874 28.6816 49.0317 28.6816C49.4565 28.6816 49.8325 28.6157 50.1597 28.4839C50.4868 28.3521 50.7432 28.1714 50.9287 27.9419C51.1143 27.7075 51.207 27.439 51.207 27.1362V27.1289C51.207 26.748 51.0581 26.438 50.7603 26.1987C50.4624 25.9546 49.9717 25.7593 49.2881 25.6128L48.1528 25.3784C47.0688 25.1489 46.2803 24.7827 45.7871 24.2798C45.2988 23.772 45.0547 23.125 45.0547 22.3389V22.3315C45.0547 21.7017 45.2207 21.1499 45.5527 20.6763C45.8896 20.2026 46.3511 19.834 46.937 19.5703C47.5278 19.3018 48.2041 19.1675 48.9658 19.1675C49.7471 19.1675 50.4233 19.2993 50.9946 19.563C51.5659 19.8218 52.0151 20.1758 52.3423 20.625C52.6694 21.0742 52.8525 21.582 52.8916 22.1484L52.8989 22.2437H51.0972L51.0825 22.1558C51.0386 21.8774 50.9238 21.6357 50.7383 21.4307C50.5576 21.2207 50.3159 21.0547 50.0132 20.9326C49.7104 20.8105 49.3564 20.7495 48.9512 20.7495C48.5654 20.7495 48.2212 20.8105 47.9185 20.9326C47.6157 21.0498 47.3765 21.2158 47.2007 21.4307C47.0298 21.6455 46.9443 21.9043 46.9443 22.207V22.2144C46.9443 22.5854 47.0884 22.8931 47.3765 23.1372C47.6694 23.3813 48.1455 23.5718 48.8047 23.7085L49.9399 23.9502C50.6821 24.1064 51.2852 24.314 51.749 24.5728C52.2129 24.8315 52.5522 25.1538 52.7671 25.5396C52.9868 25.9204 53.0967 26.3794 53.0967 26.9165V26.9238C53.0967 27.6074 52.9282 28.1982 52.5913 28.6963C52.2593 29.1943 51.7832 29.5801 51.1631 29.8535C50.5479 30.127 49.8179 30.2637 48.9731 30.2637ZM55.0522 30V21.9946H56.8687V30H55.0522ZM55.9678 20.6543C55.6699 20.6543 55.4136 20.5493 55.1987 20.3394C54.9839 20.1294 54.8765 19.8779 54.8765 19.585C54.8765 19.2822 54.9839 19.0283 55.1987 18.8232C55.4136 18.6133 55.6699 18.5083 55.9678 18.5083C56.2656 18.5083 56.5195 18.6133 56.7295 18.8232C56.9443 19.0283 57.0518 19.2822 57.0518 19.585C57.0518 19.8779 56.9443 20.1294 56.7295 20.3394C56.5195 20.5493 56.2656 20.6543 55.9678 20.6543ZM62.2666 30.0366C61.3486 30.0366 60.687 29.8682 60.2817 29.5312C59.8765 29.1943 59.6738 28.6426 59.6738 27.876V23.4082H58.4287V21.9946H59.6738V20.0317H61.5269V21.9946H63.2114V23.4082H61.5269V27.4438C61.5269 27.8394 61.6099 28.1299 61.7759 28.3154C61.9468 28.4961 62.2202 28.5864 62.5962 28.5864C62.728 28.5864 62.8354 28.584 62.9185 28.5791C63.0063 28.5693 63.104 28.5596 63.2114 28.5498V29.9561C63.0845 29.9805 62.938 30 62.772 30.0146C62.6108 30.0293 62.4424 30.0366 62.2666 30.0366ZM68.3896 30.1611C67.5938 30.1611 66.9102 29.9927 66.3389 29.6558C65.7725 29.3188 65.3354 28.8403 65.0278 28.2202C64.7202 27.6001 64.5664 26.8652 64.5664 26.0156V26.0083C64.5664 25.1685 64.7178 24.436 65.0205 23.811C65.3281 23.186 65.7627 22.7026 66.3242 22.3608C66.8857 22.0142 67.5449 21.8408 68.3018 21.8408C69.0635 21.8408 69.7178 22.0093 70.2646 22.3462C70.8164 22.6782 71.2412 23.1445 71.5391 23.7451C71.8369 24.3457 71.9858 25.0488 71.9858 25.8545V26.4551H65.4819V25.2319H71.0923L70.228 26.3745V25.6494C70.228 25.1172 70.1475 24.6753 69.9863 24.3237C69.8252 23.9722 69.6006 23.7085 69.3125 23.5327C69.0293 23.3569 68.6997 23.269 68.3237 23.269C67.9478 23.269 67.6133 23.3618 67.3203 23.5474C67.0322 23.728 66.8027 23.9966 66.6318 24.353C66.4658 24.7046 66.3828 25.1367 66.3828 25.6494V26.3818C66.3828 26.875 66.4658 27.2974 66.6318 27.6489C66.7979 27.9956 67.0322 28.2642 67.335 28.4546C67.6426 28.6401 68.0063 28.7329 68.4263 28.7329C68.7534 28.7329 69.0342 28.6865 69.2686 28.5938C69.5078 28.4961 69.7007 28.3813 69.8472 28.2495C69.9937 28.1128 70.0962 27.9834 70.1548 27.8613L70.1768 27.8101H71.9053L71.8906 27.876C71.8271 28.1348 71.71 28.3984 71.5391 28.667C71.373 28.9307 71.146 29.1772 70.8579 29.4067C70.5747 29.6313 70.228 29.8145 69.8179 29.9561C69.4077 30.0928 68.9316 30.1611 68.3896 30.1611Z" fill="white"/>
<path d="M21.6362 32.6377C14.8369 32.6377 9.18506 26.9858 9.18506 20.1865C9.18506 13.375 14.8247 7.73535 21.624 7.73535C28.4355 7.73535 34.0874 13.375 34.0874 20.1865C34.0874 26.9858 28.4478 32.6377 21.6362 32.6377ZM14.3364 12.2764C14.959 12.7158 15.7158 13.082 16.5825 13.3628C17.1196 11.8735 17.8398 10.665 18.6821 9.81055C17.0464 10.2866 15.5571 11.1411 14.3364 12.2764ZM24.6025 9.82275C25.4326 10.6772 26.1528 11.8857 26.6899 13.3628C27.5566 13.082 28.3135 12.728 28.936 12.2886C27.7031 11.1533 26.2261 10.2988 24.6025 9.82275ZM18.1572 13.7656C18.9873 13.9121 19.8784 14.0098 20.8428 14.0464V10.0913C19.793 10.5552 18.8408 11.8979 18.1572 13.7656ZM22.4419 10.0913V14.0464C23.394 14.0098 24.2852 13.9121 25.1152 13.7656C24.4316 11.8979 23.4795 10.5552 22.4419 10.0913ZM10.8696 19.3809H15.4839C15.5449 17.7451 15.7646 16.2192 16.1187 14.8521C14.9834 14.4858 14.0068 14.0098 13.25 13.436C11.9072 15.0962 11.0405 17.1592 10.8696 19.3809ZM27.7886 19.3809H32.4028C32.2319 17.1592 31.3652 15.0962 30.0103 13.4482C29.2656 14.0098 28.2891 14.4858 27.1538 14.8521C27.5078 16.2192 27.7275 17.7451 27.7886 19.3809ZM22.4419 19.3809H26.1528C26.0918 17.916 25.8965 16.5244 25.5791 15.2671C24.5903 15.4746 23.5405 15.6089 22.4419 15.6455V19.3809ZM17.1196 19.3809H20.8428V15.6455C19.7319 15.6089 18.6821 15.4746 17.6934 15.2671C17.3882 16.5244 17.1807 17.916 17.1196 19.3809ZM10.8696 20.98C11.0405 23.2261 11.9194 25.3013 13.2866 26.9736C14.0312 26.4121 14.9956 25.936 16.1187 25.5698C15.7646 24.1904 15.5449 22.6523 15.4839 20.98H10.8696ZM17.1196 20.98C17.1685 22.4692 17.3882 23.8853 17.7178 25.1548C18.6943 24.9595 19.7441 24.8252 20.8428 24.7886V20.98H17.1196ZM22.4419 24.7886C23.5283 24.8252 24.5903 24.9595 25.5547 25.1548C25.8843 23.8853 26.104 22.4692 26.1528 20.98H22.4419V24.7886ZM27.1538 25.5698C28.2769 25.936 29.2412 26.4121 29.9858 26.9736C31.353 25.3013 32.2319 23.2261 32.4028 20.98H27.7886C27.7275 22.6523 27.5078 24.1904 27.1538 25.5698ZM22.4419 26.3877V30.2939C23.4673 29.8301 24.4072 28.4873 25.0908 26.6685C24.2729 26.5098 23.3818 26.4243 22.4419 26.3877ZM18.1816 26.6685C18.8652 28.4873 19.8052 29.8301 20.8428 30.2939V26.3877C19.8906 26.4243 18.9995 26.5098 18.1816 26.6685ZM26.6777 27.0591C26.1406 28.5117 25.4326 29.708 24.6147 30.5503C26.2261 30.0742 27.6787 29.2319 28.8994 28.1211C28.2769 27.6938 27.5322 27.3398 26.6777 27.0591ZM14.373 28.1211C15.5938 29.2319 17.0586 30.0742 18.6699 30.5503C17.8398 29.708 17.1318 28.5117 16.5947 27.0591C15.7402 27.3398 14.9956 27.6938 14.373 28.1211Z" fill="white"/>
</svg>
